<svg width="200" height="200" viewBox="0 0 200 200" fill="none" xmlns="http://www.w3.org/2000/svg">
<path d="M103.125 187.5L103.056 185.494C105.556 185.406 108.056 185.212 110.494 184.906L110.738 186.9C108.2 187.2 105.625 187.4 103.125 187.5ZM95.4875 187.431C92.9875 187.3 90.4 187.05 87.8875 186.694L88.1688 184.706C90.625 185.05 93.125 185.294 95.5938 185.425L95.4875 187.431ZM118.25 185.625L117.831 183.662C120.25 183.144 122.681 182.512 125.05 181.787L125.637 183.706C123.212 184.444 120.725 185.094 118.25 185.625ZM80.3563 185.294C77.8563 184.725 75.4125 184.044 73 183.256L73.625 181.344C75.9812 182.106 78.4 182.781 80.8125 183.337L80.3563 185.294ZM132.856 181.137L132.1 179.262C134.375 178.337 136.65 177.3 138.85 176.181H138.888L139.794 177.969C137.5 179.131 135.163 180.194 132.831 181.137H132.856ZM65.8687 180.587C63.5312 179.6 61.2125 178.494 58.9938 177.312L59.9312 175.537C62.1187 176.7 64.3875 177.775 66.6687 178.737L65.8687 180.587ZM146.45 174.206L145.387 172.5C147.494 171.187 149.563 169.769 151.538 168.281L152.744 169.887C150.694 171.406 148.575 172.862 146.425 174.206H146.45ZM52.3687 173.444C50.2375 172.069 48.1438 170.575 46.1188 169.019L47.3687 167.437C49.3188 168.956 51.3687 170.412 53.4437 171.756L52.3687 173.444ZM158.619 165.031L157.275 163.537C159.112 161.881 160.9 160.125 162.594 158.312L164.062 159.681C162.325 161.537 160.494 163.337 158.613 165L158.619 165.031ZM40.3375 164.075C38.4625 162.35 36.6813 160.519 34.9875 158.637L36.4812 157.294C38.1375 159.131 39.9 160.919 41.7062 162.606L40.3375 164.075ZM169.006 153.875L167.425 152.625C168.95 150.675 170.4 148.631 171.75 146.55L173.438 147.644C172.056 149.787 170.563 151.875 169.006 153.875ZM30.125 152.744C28.6 150.719 27.15 148.606 25.8 146.45L27.5 145.387C28.8125 147.494 30.2375 149.562 31.725 151.537L30.125 152.744ZM177.294 141.075L175.519 140.131C176.681 137.944 177.756 135.675 178.725 133.394L180.6 134.175C179.594 136.519 178.481 138.837 177.294 141.075ZM22.0375 139.825L22 139.75C20.8562 137.506 19.8 135.2 18.875 132.875L20.75 132.119C21.6687 134.381 22.7 136.644 23.8188 138.831L23.8562 138.906L22.0375 139.825ZM183.25 127.031L181.337 126.406C182.1 124.05 182.775 121.631 183.331 119.219L185.287 119.669C184.719 122.144 184.037 124.619 183.25 127.031ZM16.3 125.669C15.55 123.244 14.9062 120.756 14.375 118.281L16.3375 117.862C16.8563 120.281 17.4875 122.712 18.2125 125.081L16.3 125.669ZM186.688 112.162L184.7 111.881C185.05 109.425 185.287 106.925 185.419 104.456L187.425 104.562C187.294 107.094 187.044 109.65 186.688 112.162ZM13.125 110.75C12.8125 108.25 12.6125 105.675 12.5 103.137L14.5063 103.069C14.5938 105.569 14.7937 108.069 15.0937 110.506L13.125 110.75ZM185.512 96.9999C185.425 94.4999 185.231 91.9999 184.931 89.5624L186.925 89.3187C187.231 91.8187 187.437 94.3999 187.55 96.9312L185.512 96.9999ZM14.5688 95.6249L12.5625 95.4999C12.6937 92.9687 12.9438 90.4124 13.2938 87.8999L15.2812 88.1812C14.9375 90.6249 14.7 93.1249 14.5688 95.6249ZM183.675 82.2249C183.156 79.8062 182.525 77.3749 181.8 75.0062L183.75 74.3749C184.494 76.7999 185.144 79.2874 185.669 81.7687L183.675 82.2249ZM16.6438 80.8374L14.6875 80.3874C15.2562 77.8874 15.9375 75.4437 16.725 73.0312L18.6375 73.6562C17.8688 76.0062 17.2 78.4249 16.6438 80.8374ZM179.306 67.9499C178.375 65.6624 177.337 63.3749 176.181 61.1624L177.969 60.2499C179.125 62.5187 180.188 64.8499 181.138 67.1937L179.306 67.9499ZM21.25 66.6562L19.375 65.8749C20.3625 63.5374 21.4625 61.2186 22.65 58.9999L24.425 59.9374C23.275 62.1062 22.2 64.3749 21.25 66.6562ZM28.2063 53.4812L26.5188 52.3937C27.8938 50.2624 29.3812 48.1687 30.9375 46.1437L32.525 47.3937C31.0062 49.3749 29.55 51.3999 28.2063 53.4812ZM37.3563 41.7249L35.8875 40.3562C37.6125 38.4812 39.4437 36.6999 41.325 34.9999L42.6688 36.4937C40.8313 38.1249 39.0438 39.9124 37.3563 41.7249ZM48.4188 31.7249L47.2125 30.1187C49.2312 28.5937 51.35 27.1374 53.5062 25.7937L54.5687 27.4937C52.4625 28.8374 50.3938 30.2562 48.4188 31.7437V31.7249ZM146.575 28.2374L146.463 28.1624L147.556 26.4749L147.669 26.5437L146.575 28.2374ZM140.031 24.3874C137.844 23.2249 135.575 22.1499 133.294 21.1874L134.075 19.3124C136.412 20.2999 138.731 21.3999 140.95 22.5874L140.031 24.3874ZM61.0563 23.8437L60.1438 22.0562L60.2562 21.9999C62.4812 20.8687 64.7813 19.8187 67.0875 18.8749L67.8437 20.7499C65.5875 21.6687 63.3437 22.6937 61.1687 23.7999L61.0563 23.8437ZM126.306 18.6062C123.95 17.8437 121.531 17.1749 119.113 16.6249L119.562 14.6687C122.062 15.2374 124.513 15.9187 126.925 16.6999L126.306 18.6062ZM74.875 18.2312L74.2875 16.3124C76.7125 15.5687 79.2 14.9187 81.675 14.3874L82.0938 16.3499C79.6688 16.8749 77.2437 17.4999 74.875 18.2312ZM111.75 15.2749C109.294 14.9312 106.794 14.6999 104.325 14.5687L104.425 12.5624C106.956 12.6937 109.512 12.9312 112.025 13.2812L111.75 15.2749ZM89.425 15.1124L89.175 13.1187C91.675 12.8062 94.25 12.5999 96.7875 12.4937L96.8625 14.4999C94.4125 14.6062 91.9063 14.8062 89.45 15.1124H89.425Z" fill="#808080"/>
<path d="M100 166.913C136.962 166.913 166.925 136.949 166.925 99.9875C166.925 63.0258 136.962 33.0625 100 33.0625C63.0383 33.0625 33.075 63.0258 33.075 99.9875C33.075 136.949 63.0383 166.913 100 166.913Z" fill="#000080"/>
<path d="M127.719 91.8626C138.543 91.8626 147.319 83.0874 147.319 72.2626C147.319 61.4378 138.543 52.6626 127.719 52.6626C116.894 52.6626 108.119 61.4378 108.119 72.2626C108.119 83.0874 116.894 91.8626 127.719 91.8626Z" fill="white"/>
<path d="M166.925 52.6688C177.753 52.6688 186.531 43.8908 186.531 33.0625C186.531 22.2343 177.753 13.4563 166.925 13.4563C156.097 13.4563 147.319 22.2343 147.319 33.0625C147.319 43.8908 156.097 52.6688 166.925 52.6688Z" fill="#000080"/>
<path d="M81.8749 133.45V128.513H60.1811V89.5376H54.5562V133.45H81.8749Z" fill="white"/>
<path d="M111.975 133.45V101.875H106.975V119.281C106.975 125.725 103.6 129.944 98.3625 129.944C97.5158 130.023 96.6618 129.92 95.8584 129.641C95.055 129.363 94.3208 128.914 93.7057 128.327C93.0905 127.74 92.6088 127.027 92.2929 126.237C91.9771 125.448 91.8345 124.6 91.875 123.75V101.875H86.875V125.731C86.875 130.969 90.7875 134.344 96.9313 134.344C99.0484 134.431 101.149 133.938 103.007 132.92C104.865 131.901 106.41 130.394 107.475 128.563V133.444H111.994" fill="white"/>
<path d="M148.694 133.331V129.538C148.34 129.624 147.977 129.664 147.612 129.656C145.869 129.656 144.9 128.75 144.9 127.156V109.6C144.9 103.975 140.806 100.988 133.025 100.988C125.375 100.988 120.675 103.938 120.375 111.225H125.437C125.856 107.369 128.15 105.6 132.844 105.6C137.362 105.6 139.894 107.288 139.894 110.3V111.625C139.894 113.731 138.644 114.638 134.656 115.119C131.208 115.272 127.801 115.921 124.537 117.044C122.856 117.633 121.409 118.748 120.41 120.224C119.412 121.699 118.915 123.457 118.994 125.238C118.994 130.963 122.969 134.331 129.356 134.331C131.364 134.328 133.35 133.914 135.193 133.117C137.036 132.32 138.697 131.155 140.075 129.694C140.343 130.87 141.001 131.92 141.941 132.675C142.882 133.429 144.05 133.844 145.256 133.85C146.42 133.832 147.575 133.649 148.687 133.306M139.894 122.525C139.611 124.756 138.459 126.786 136.688 128.172C134.918 129.559 132.671 130.191 130.437 129.931C126.525 129.931 124.231 128.544 124.231 125.113C124.231 121.8 126.462 120.356 131.819 119.569C134.586 119.439 137.313 118.849 139.887 117.825L139.894 122.525Z" fill="white"/>
</svg>
